<svg xmlns="http://www.w3.org/2000/svg" xmlns:xlink="http://www.w3.org/1999/xlink" version="1.1" x="0px" y="0px" viewBox="0 0 100 125" style="enable-background:new 0 0 100 100;" xml:space="preserve">

	<g style="" display="none"><rect x="-370.878" y="-10.879" style="" width="1478.926" height="487.476" display="inline" fill="#D3A7A7"/></g>

	<g>
		<path d="M78.267,23.208l0.902-11.276c0.065-0.811-0.38-1.576-1.117-1.92c-0.736-0.343-1.609-0.194-2.189,0.375l-20.66,20.291   l2.754,2.754l13.742,13.742l2.754,2.754l3.26-3.26l4.71,4.709c0.76,0.761,1.994,0.761,2.754,0l9.252-9.252   c0.761-0.76,0.761-1.994,0-2.754L78.267,23.208z"/>
		<path d="M13.44,39.507V87.25c0,1.076,0.872,1.948,1.948,1.948H26.1c1.076,0,1.948-0.872,1.948-1.948V70.694h29.216v17.529   c0,1.076,0.872,1.948,1.948,1.948H70.41c1.076,0,1.948-0.872,1.948-1.948V55.576l-3.895-3.895L54.051,37.268l-2.754-2.754   l-2.133,2.095H18.285l-8.857-8.857c-0.743-0.743-1.947-0.743-2.69,0l-1.182,1.182c-0.743,0.743-0.743,1.947,0,2.69L13.44,39.507z"/>
	</g>

</svg>